<mxfile host="app.diagrams.net" agent="Mozilla/5.0 (Windows NT 10.0; Win64; x64) AppleWebKit/537.36 (KHTML, like Gecko) Chrome/138.0.0.0 Safari/537.36 Edg/138.0.0.0" version="26.2.10">
  <diagram name="Page-1" id="qrey0yOiCed3igP81Hsf">
    <mxGraphModel dx="1155" dy="643" grid="1" gridSize="10" guides="1" tooltips="1" connect="1" arrows="1" fold="1" page="1" pageScale="1" pageWidth="827" pageHeight="1169" math="0" shadow="0">
      <root>
        <mxCell id="0" />
        <mxCell id="1" parent="0" />
        <mxCell id="kHxybJMivnqWUZXiAxVz-4" style="edgeStyle=orthogonalEdgeStyle;rounded=0;orthogonalLoop=1;jettySize=auto;html=1;exitX=0.5;exitY=1;exitDx=0;exitDy=0;entryX=0.5;entryY=0;entryDx=0;entryDy=0;" edge="1" parent="1" source="kHxybJMivnqWUZXiAxVz-2" target="kHxybJMivnqWUZXiAxVz-3">
          <mxGeometry relative="1" as="geometry" />
        </mxCell>
        <mxCell id="kHxybJMivnqWUZXiAxVz-2" value="Inicio" style="ellipse;whiteSpace=wrap;html=1;" vertex="1" parent="1">
          <mxGeometry x="350" y="40" width="120" height="80" as="geometry" />
        </mxCell>
        <mxCell id="kHxybJMivnqWUZXiAxVz-6" style="edgeStyle=orthogonalEdgeStyle;rounded=0;orthogonalLoop=1;jettySize=auto;html=1;exitX=0.5;exitY=1;exitDx=0;exitDy=0;entryX=0.5;entryY=0;entryDx=0;entryDy=0;" edge="1" parent="1" source="kHxybJMivnqWUZXiAxVz-3" target="kHxybJMivnqWUZXiAxVz-5">
          <mxGeometry relative="1" as="geometry" />
        </mxCell>
        <mxCell id="kHxybJMivnqWUZXiAxVz-3" value="Definir variables &quot;n&quot; y &quot;suma&quot; como enteros, con valor 0" style="rounded=0;whiteSpace=wrap;html=1;" vertex="1" parent="1">
          <mxGeometry x="330" y="140" width="160" height="60" as="geometry" />
        </mxCell>
        <mxCell id="kHxybJMivnqWUZXiAxVz-8" style="edgeStyle=orthogonalEdgeStyle;rounded=0;orthogonalLoop=1;jettySize=auto;html=1;exitX=0.5;exitY=1;exitDx=0;exitDy=0;entryX=0.5;entryY=0;entryDx=0;entryDy=0;" edge="1" parent="1" source="kHxybJMivnqWUZXiAxVz-5" target="kHxybJMivnqWUZXiAxVz-7">
          <mxGeometry relative="1" as="geometry" />
        </mxCell>
        <mxCell id="kHxybJMivnqWUZXiAxVz-5" value="Leer n" style="shape=parallelogram;perimeter=parallelogramPerimeter;whiteSpace=wrap;html=1;fixedSize=1;" vertex="1" parent="1">
          <mxGeometry x="350" y="230" width="120" height="60" as="geometry" />
        </mxCell>
        <mxCell id="kHxybJMivnqWUZXiAxVz-10" style="edgeStyle=orthogonalEdgeStyle;rounded=0;orthogonalLoop=1;jettySize=auto;html=1;exitX=0.5;exitY=1;exitDx=0;exitDy=0;" edge="1" parent="1" source="kHxybJMivnqWUZXiAxVz-7" target="kHxybJMivnqWUZXiAxVz-9">
          <mxGeometry relative="1" as="geometry" />
        </mxCell>
        <mxCell id="kHxybJMivnqWUZXiAxVz-18" style="edgeStyle=orthogonalEdgeStyle;rounded=0;orthogonalLoop=1;jettySize=auto;html=1;exitX=1;exitY=0.5;exitDx=0;exitDy=0;entryX=1;entryY=0.5;entryDx=0;entryDy=0;" edge="1" parent="1" source="kHxybJMivnqWUZXiAxVz-7" target="kHxybJMivnqWUZXiAxVz-14">
          <mxGeometry relative="1" as="geometry">
            <Array as="points">
              <mxPoint x="530" y="360" />
              <mxPoint x="530" y="570" />
            </Array>
          </mxGeometry>
        </mxCell>
        <mxCell id="kHxybJMivnqWUZXiAxVz-7" value="n&amp;gt;=0" style="rhombus;whiteSpace=wrap;html=1;" vertex="1" parent="1">
          <mxGeometry x="360" y="330" width="100" height="60" as="geometry" />
        </mxCell>
        <mxCell id="kHxybJMivnqWUZXiAxVz-11" style="edgeStyle=orthogonalEdgeStyle;rounded=0;orthogonalLoop=1;jettySize=auto;html=1;exitX=0;exitY=0.5;exitDx=0;exitDy=0;entryX=0;entryY=0.5;entryDx=0;entryDy=0;" edge="1" parent="1" source="kHxybJMivnqWUZXiAxVz-9" target="kHxybJMivnqWUZXiAxVz-7">
          <mxGeometry relative="1" as="geometry">
            <mxPoint x="410" y="320" as="targetPoint" />
            <Array as="points">
              <mxPoint x="330" y="460" />
              <mxPoint x="330" y="360" />
            </Array>
          </mxGeometry>
        </mxCell>
        <mxCell id="kHxybJMivnqWUZXiAxVz-15" style="edgeStyle=orthogonalEdgeStyle;rounded=0;orthogonalLoop=1;jettySize=auto;html=1;exitX=0.5;exitY=1;exitDx=0;exitDy=0;" edge="1" parent="1" source="kHxybJMivnqWUZXiAxVz-9" target="kHxybJMivnqWUZXiAxVz-14">
          <mxGeometry relative="1" as="geometry" />
        </mxCell>
        <mxCell id="kHxybJMivnqWUZXiAxVz-9" value="suma = suma + n&lt;br&gt;n= n-1" style="rounded=0;whiteSpace=wrap;html=1;" vertex="1" parent="1">
          <mxGeometry x="350" y="430" width="120" height="60" as="geometry" />
        </mxCell>
        <mxCell id="kHxybJMivnqWUZXiAxVz-12" value="si" style="text;html=1;align=center;verticalAlign=middle;whiteSpace=wrap;rounded=0;" vertex="1" parent="1">
          <mxGeometry x="360" y="390" width="60" height="30" as="geometry" />
        </mxCell>
        <mxCell id="kHxybJMivnqWUZXiAxVz-20" style="edgeStyle=orthogonalEdgeStyle;rounded=0;orthogonalLoop=1;jettySize=auto;html=1;exitX=0.5;exitY=1;exitDx=0;exitDy=0;entryX=0.5;entryY=0;entryDx=0;entryDy=0;" edge="1" parent="1" source="kHxybJMivnqWUZXiAxVz-14" target="kHxybJMivnqWUZXiAxVz-19">
          <mxGeometry relative="1" as="geometry" />
        </mxCell>
        <mxCell id="kHxybJMivnqWUZXiAxVz-14" value="Escribir (&quot;El resultado es&quot; + suma)" style="shape=parallelogram;perimeter=parallelogramPerimeter;whiteSpace=wrap;html=1;fixedSize=1;" vertex="1" parent="1">
          <mxGeometry x="300" y="550" width="220" height="60" as="geometry" />
        </mxCell>
        <mxCell id="kHxybJMivnqWUZXiAxVz-19" value="Fin" style="ellipse;whiteSpace=wrap;html=1;" vertex="1" parent="1">
          <mxGeometry x="350" y="630" width="120" height="80" as="geometry" />
        </mxCell>
        <mxCell id="kHxybJMivnqWUZXiAxVz-21" value="no" style="text;html=1;align=center;verticalAlign=middle;whiteSpace=wrap;rounded=0;" vertex="1" parent="1">
          <mxGeometry x="460" y="330" width="60" height="30" as="geometry" />
        </mxCell>
      </root>
    </mxGraphModel>
  </diagram>
</mxfile>
